P296 96511511 511 511 511 511 511 511 511 511 511 511 511 511 511 511 511 511 511 511 511 511 511 511 511 511 511 511 511 511 511 511 511 511 511 511 511 511 511 511 511 511 511 511 511 438 356 356 356 428 429 502 511 511 511 511 511 511 511 511 511 511 511 511 511 511 511 511 511 511 511 511 511 511 511 511 511 511 511 511 511 511 511 511 511 511 511 511 511 511 511 511 511 511 511 511 511 511 511 511 511 511 511 511 511 511 511 511 511 511 511 511 511 511 511 511 511 511 511 511 511 511 511 511 511 511 511 511 511 511 511 511 511 511 511 511 511 511 438 292 210 146 210 210 283 347 355 355 419 428 501 511 511 511 511 511 511 511 511 511 511 511 511 511 511 511 511 511 511 511 511 511 511 511 511 511 511 511 511 511 511 511 511 511 511 511 511 511 511 511 511 511 511 511 511 511 511 511 511 511 511 511 511 511 511 511 511 511 511 511 511 511 511 511 511 511 511 511 511 511 511 511 511 511 511 511 511 511 511 511 511 511 429 219 146 138 138 138 146 210 283 283 347 355 355 419 428 492 502 511 511 511 511 511 511 511 511 511 511 511 511 511 511 511 511 511 511 511 511 511 511 511 511 511 511 511 511 511 511 511 511 511 511 511 511 511 511 511 511 511 511 511 511 511 511 511 511 511 511 511 511 511 511 511 511 511 511 511 511 511 511 511 511 511 511 511 511 511 511 511 511 511 511 511 511 511 511 219 74 138 138 146 210 219 283 283 283 355 355 355 355 419 428 428 492 501 511 511 511 511 511 511 511 511 511 511 511 511 511 511 511 511 511 511 511 511 511 511 511 511 511 511 511 511 511 511 511 511 511 511 511 511 511 511 511 511 511 511 511 511 511 511 511 511 511 511 511 511 511 511 511 511 511 511 511 511 511 511 511 511 511 511 511 511 511 511 511 511 511 511 511 429 146 138 146 146 138 146 211 211 219 283 283 283 355 355 355 420 428 428 492 500 501 511 511 511 511 511 511 511 511 511 511 511 511 511 511 511 511 511 511 511 511 511 511 511 511 511 511 511 511 511 511 511 511 511 511 511 511 511 511 511 511 511 511 511 511 511 511 511 511 511 511 511 511 511 511 511 511 511 511 511 511 511 511 511 511 511 511 511 511 511 511 511 511 511 438 74 146 146 146 146 146 138 138 146 210 219 283 283 347 355 419 419 428 428 428 500 500 501 511 511 511 511 511 511 511 511 511 511 511 511 511 511 511 511 511 511 511 511 511 511 511 511 511 511 511 511 511 511 511 511 511 511 511 511 511 511 511 511 511 511 511 511 511 511 511 511 511 511 511 511 511 511 511 511 511 511 511 511 511 511 511 511 511 511 511 511 511 511 511 502 138 146 146 146 146 146 138 138 138 138 138 137 146 210 282 283 347 419 419 428 492 500 501 509 501 511 511 511 511 511 511 511 511 511 511 511 511 511 511 511 511 511 511 511 511 511 511 511 511 511 511 511 511 511 511 511 511 511 511 511 511 511 511 511 511 511 511 511 511 511 511 511 511 511 511 511 511 511 511 511 511 511 511 511 511 511 511 511 511 511 511 511 511 511 511 219 138 146 146 146 146 138 138 138 138 138 138 137 137 137 146 210 347 355 428 428 492 501 510 510 510 510 511 511 511 511 511 511 511 511 511 511 511 511 511 511 511 511 511 511 511 511 511 511 511 511 511 511 511 511 511 511 511 511 511 511 511 511 511 511 511 511 511 511 511 511 511 511 511 511 511 511 511 511 511 511 511 511 511 511 511 511 511 511 511 511 511 511 511 511 438 138 146 146 146 146 146 138 138 138 138 138 137 137 137 137 137 137 210 355 420 419 492 500 509 510 510 510 511 511 511 511 511 511 511 511 511 511 511 511 511 511 511 511 511 511 511 511 511 511 511 511 511 511 511 511 511 511 511 511 511 511 511 511 511 511 511 511 511 511 511 511 511 511 511 511 511 511 511 511 511 511 511 511 511 511 511 511 511 511 511 511 511 511 511 511 211 146 146 146 146 210 138 138 138 138 137 137 138 138 138 138 138 146 137 210 355 428 419 492 509 509 510 511 510 511 511 511 511 511 511 511 511 511 511 511 511 511 511 511 511 511 511 511 511 511 511 511 511 511 511 511 511 511 511 511 511 511 511 511 511 511 511 511 511 511 511 511 511 511 511 511 511 511 511 511 511 511 511 511 511 511 511 511 511 511 511 511 511 511 511 511 137 146 146 146 210 210 138 138 137 137 137 138 138 137 137 138 137 137 137 210 347 419 419 492 510 511 511 511 510 511 511 511 511 511 511 511 511 511 511 511 511 511 511 511 511 511 511 511 511 511 511 511 511 511 511 511 511 511 511 511 511 511 511 511 511 511 511 511 511 511 511 511 511 511 511 511 511 511 511 511 511 511 511 511 511 511 511 511 511 511 511 511 511 511 511 365 138 146 146 210 210 202 202 201 201 137 202 201 201 202 201 201 201 138 202 201 274 355 419 500 510 511 511 511 510 510 511 511 511 511 511 511 511 511 511 511 511 511 511 511 511 511 511 511 511 511 511 511 511 511 511 511 511 511 511 511 511 511 511 511 511 511 511 511 511 511 511 511 511 511 511 511 511 511 511 511 511 511 511 511 511 511 511 511 511 511 511 511 511 511 511 219 146 146 210 210 202 202 202 201 201 201 201 201 201 201 201 201 202 202 202 202 202 347 420 501 510 511 511 511 510 500 511 511 511 511 511 511 511 511 511 511 511 511 511 511 511 511 511 511 511 511 511 511 511 511 511 511 511 511 511 511 511 511 511 511 511 511 511 511 511 511 511 511 511 511 511 511 511 511 511 511 511 511 511 511 511 511 511 511 511 511 511 511 511 511 511 210 146 210 210 210 202 202 202 201 201 201 201 201 201 201 201 202 202 201 202 202 202 210 355 492 510 510 511 510 509 500 511 511 511 511 511 511 511 511 511 511 511 511 511 511 511 511 511 511 511 511 511 511 511 511 511 511 511 511 511 511 511 511 511 511 511 511 511 511 511 511 511 511 511 511 511 511 511 511 511 511 511 511 511 511 511 511 511 511 511 511 511 511 511 511 510 210 210 210 210 210 202 202 201 201 201 201 201 201 201 201 201 201 201 201 202 202 202 202 282 428 509 510 511 510 509 500 510 511 511 511 511 511 511 511 511 511 511 511 511 511 511 511 511 511 511 511 511 511 511 511 511 511 511 511 511 511 511 511 511 511 511 511 511 511 511 511 511 511 511 511 511 511 511 511 511 511 511 511 511 511 511 511 511 511 511 511 511 511 511 511 438 210 210 210 210 210 202 202 201 201 201 201 201 201 201 201 201 201 201 201 202 202 202 210 201 283 500 509 510 510 509 500 501 511 511 511 511 511 511 511 511 511 511 511 511 511 511 511 511 511 511 511 511 511 511 511 511 511 511 511 511 511 511 511 511 511 511 511 511 511 511 511 511 511 511 511 511 511 511 511 511 511 511 511 511 511 511 511 511 511 511 511 511 511 511 511 438 210 210 210 210 210 202 210 202 201 201 201 201 201 201 201 201 201 201 201 201 201 210 210 210 282 428 501 509 509 500 500 492 511 511 511 511 511 511 511 511 511 511 511 511 511 511 511 511 511 511 511 511 511 511 511 511 511 511 511 511 511 511 511 511 511 511 511 511 511 511 511 511 511 511 511 511 511 511 511 511 511 511 511 511 511 511 511 511 511 511 511 511 511 511 511 438 210 210 210 210 210 210 210 202 201 201 201 201 201 201 201 201 201 201 201 201 201 210 210 210 210 282 428 510 509 500 500 492 511 511 511 511 511 511 511 511 511 511 511 511 511 511 511 511 511 511 511 511 511 511 511 511 511 511 511 511 511 511 511 511 511 511 511 511 511 511 511 511 511 511 511 511 511 511 511 511 511 511 511 511 511 511 511 511 511 511 511 511 511 511 511 429 201 210 210 210 202 210 210 210 201 201 201 201 201 201 201 201 201 201 201 201 210 210 209 209 201 210 210 274 428 492 492 492 511 511 511 511 511 511 511 511 511 511 511 511 511 511 511 511 511 511 511 511 511 511 511 511 511 511 511 511 511 511 511 511 511 511 511 511 511 511 511 511 511 511 511 511 511 511 511 511 511 511 511 511 511 511 511 511 511 511 511 511 511 511 511 365 201 210 210 210 210 210 210 209 210 201 201 201 201 201 201 201 201 201 201 201 201 201 209 210 210 274 428 501 355 419 492 492 502 511 511 511 511 511 511 511 511 511 511 511 511 511 511 511 511 511 511 511 511 511 511 511 511 511 511 511 511 511 511 511 511 511 511 511 511 511 511 511 511 511 511 511 511 511 511 511 511 511 511 511 511 511 511 511 511 511 511 511 511 511 511 356 201 210 210 210 210 210 210 209 210 209 201 209 201 201 201 201 201 201 201 201 201 201 210 209 201 201 137 273 428 492 492 492 502 511 511 511 511 511 511 511 511 511 511 511 511 511 511 511 511 511 511 511 511 511 511 511 511 511 511 511 511 511 511 511 511 511 511 511 511 511 511 511 511 511 511 511 511 511 511 511 511 511 511 511 511 511 511 511 511 511 511 511 511 511 511 356 201 210 210 210 210 210 210 210 209 209 201 201 201 201 201 201 201 201 201 201 201 201 201 201 201 201 355 420 419 419 419 427 502 511 511 511 511 511 511 511 511 511 511 511 511 511 511 511 511 511 511 511 511 511 511 511 511 511 511 511 511 511 511 511 511 511 511 511 511 511 511 511 511 511 511 511 511 511 511 511 511 511 511 511 511 511 511 511 511 511 511 511 511 511 511 356 201 210 210 210 210 210 210 209 209 209 209 209 201 201 201 201 201 201 201 209 201 209 210 210 209 210 274 346 501 428 491 419 502 511 511 511 511 511 511 511 511 511 511 511 511 511 511 511 511 511 511 511 511 511 511 511 511 511 511 511 511 511 511 511 511 511 511 511 511 511 511 511 511 511 511 511 511 511 511 511 511 511 511 511 511 511 511 511 511 511 511 511 511 511 511 356 201 210 210 210 210 209 209 201 201 209 201 201 201 209 209 201 201 201 201 201 201 201 201 201 201 201 201 201 273 492 419 419 510 511 511 511 511 511 511 511 511 511 511 511 511 511 511 511 511 511 511 511 511 511 511 511 511 511 511 511 511 511 511 511 511 511 511 511 511 511 511 511 511 511 511 511 511 511 511 511 511 511 511 511 511 511 511 511 511 511 511 511 511 511 511 356 209 210 210 210 210 210 209 209 209 201 201 201 201 201 201 201 201 201 201 201 209 209 210 202 202 210 210 419 501 346 419 491 510 511 511 511 511 511 511 511 511 511 511 511 511 511 511 511 511 511 511 511 511 511 511 511 511 511 511 511 511 511 511 511 511 511 511 511 511 511 511 511 511 511 511 511 511 511 511 511 511 511 511 511 511 511 511 511 511 511 511 511 511 511 511 356 209 210 274 210 210 209 209 201 201 201 201 201 201 201 209 201 201 209 209 209 201 201 201 201 201 201 201 201 355 509 419 492 511 502 511 511 511 511 511 511 511 511 511 511 511 511 511 511 511 511 511 511 511 511 511 511 511 511 511 511 511 511 511 511 511 511 511 511 511 511 511 511 511 511 511 511 511 511 511 511 511 511 511 511 511 511 511 511 511 511 511 511 511 511 511 356 201 210 210 274 209 209 209 209 201 201 201 201 201 201 201 201 201 201 201 201 201 201 201 201 201 209 201 347 355 419 492 492 511 347 510 511 511 511 511 511 511 511 511 511 511 511 511 511 511 511 511 511 511 511 511 511 511 511 511 511 511 511 511 511 511 511 511 511 511 511 511 511 511 511 511 511 511 511 511 511 511 511 511 511 511 511 511 511 511 511 511 511 511 283 511 356 201 210 274 210 210 210 209 201 209 201 201 209 209 209 209 209 201 201 209 209 209 209 209 210 201 201 210 209 500 500 500 501 429 273 511 511 511 511 511 511 511 511 511 511 511 511 511 511 511 511 511 511 511 511 511 511 511 511 511 511 511 511 511 511 511 511 511 511 511 511 511 511 511 511 511 511 511 511 511 511 511 511 511 511 511 511 511 511 511 511 511 511 511 128 356 438 209 210 210 210 210 210 201 201 201 201 201 201 209 209 201 201 201 201 209 209 209 209 201 201 210 210 210 210 346 346 492 501 274 265 511 511 511 511 511 511 511 511 511 511 511 511 511 511 511 511 511 511 511 511 511 511 511 511 511 511 511 511 511 511 511 511 511 511 511 511 511 511 511 511 511 511 511 511 511 511 511 511 511 511 511 511 511 511 511 511 511 511 511 274 137 511 137 274 210 210 209 210 201 201 210 210 201 201 210 209 209 201 209 201 201 201 201 201 201 137 137 137 137 282 419 355 428 501 274 265 511 511 511 511 511 511 511 511 511 511 511 511 511 511 511 511 511 511 511 511 511 511 511 511 511 511 511 511 511 511 511 511 511 511 511 511 511 511 511 511 511 511 511 511 511 511 511 511 511 511 511 511 511 511 511 511 511 511 511 274 201 201 210 201 210 210 201 137 137 137 201 209 201 201 137 201 201 201 209 201 201 201 201 201 137 137 128 136 137 137 274 419 427 428 274 410 511 511 511 511 511 511 511 511 511 511 511 511 511 511 511 511 511 511 511 511 511 511 511 511 511 511 511 511 511 511 511 511 511 511 511 511 511 511 511 511 511 511 511 511 511 511 511 511 511 511 511 511 511 511 511 511 511 511 511 209 274 201 274 137 201 210 201 137 136 136 136 136 137 136 136 201 201 201 201 201 201 201 201 201 201 201 201 201 201 137 209 419 428 419 346 346 511 511 511 511 511 511 511 511 511 511 511 511 511 511 511 511 511 511 511 511 511 511 511 511 511 511 511 511 511 511 511 511 511 511 511 511 511 511 511 511 511 511 511 511 511 511 511 511 511 511 511 511 511 511 511 511 511 511 511 210 273 274 274 201 201 201 201 201 137 137 137 136 137 201 201 201 201 201 201 201 201 201 201 137 137 137 201 201 209 210 274 355 419 346 346 337 511 511 511 511 511 511 511 511 511 511 511 511 511 511 511 511 511 511 511 511 511 511 511 511 511 511 511 511 511 511 511 511 511 511 511 511 511 511 511 511 511 511 511 511 511 511 511 511 511 511 511 511 511 511 511 511 511 511 511 364 265 274 210 210 201 209 201 201 137 201 201 137 137 137 136 137 201 201 201 201 201 201 128 137 201 201 201 201 209 201 209 209 274 501 346 337 511 511 511 511 511 511 511 511 511 511 511 511 511 511 511 511 511 511 511 511 511 511 511 511 511 511 511 511 511 511 511 511 511 511 511 511 511 511 511 511 511 511 511 511 511 511 511 511 511 511 511 511 511 511 511 511 511 511 511 438 200 273 274 210 137 209 201 209 274 273 201 201 137 201 201 137 137 201 209 201 201 137 137 136 136 64 64 137 201 201 201 201 274 201 273 329 511 511 511 511 511 511 511 511 511 511 511 511 511 511 511 511 511 511 511 511 511 511 511 511 511 511 511 511 511 511 511 511 511 511 511 511 511 511 511 511 511 511 511 511 511 511 511 511 511 511 511 511 511 511 511 511 511 511 511 502 200 200 210 210 137 136 209 273 201 136 136 0 73 136 128 137 201 137 136 137 201 137 137 128 128 72 0 137 201 274 137 201 347 274 411 328 511 511 511 511 511 511 511 511 511 511 511 511 511 511 511 511 511 511 511 511 511 511 511 511 511 511 511 511 511 511 511 511 511 511 511 511 511 511 511 511 511 511 511 511 511 511 511 511 511 511 511 511 511 511 511 511 511 511 511 502 128 201 210 274 274 201 209 201 201 201 137 64 64 137 128 137 201 137 201 201 137 274 137 137 137 137 129 201 201 210 137 201 347 346 483 346 511 511 511 511 511 511 511 511 511 511 511 511 511 511 511 511 511 511 511 511 511 511 511 511 511 511 511 511 511 511 511 511 511 511 511 511 511 511 511 511 511 511 511 511 511 511 511 511 511 511 511 511 511 511 511 511 511 511 511 511 128 201 274 274 274 201 209 201 209 209 201 137 137 137 137 201 137 137 137 201 201 273 137 137 137 137 201 201 210 210 137 201 347 355 419 437 511 511 511 511 511 511 511 511 511 511 511 511 511 511 511 511 511 511 511 511 511 511 511 511 511 511 511 511 511 511 511 511 511 511 511 511 511 511 511 511 511 511 511 511 511 511 511 511 511 511 511 511 511 511 511 511 511 511 511 511 128 201 274 274 274 201 210 201 274 273 209 201 201 137 137 201 137 137 201 201 202 201 201 136 201 137 201 210 209 201 201 210 274 419 346 429 511 511 511 511 511 511 511 511 511 511 511 511 511 511 511 511 511 511 511 511 511 511 511 511 511 511 511 511 511 511 511 511 511 511 511 511 511 511 511 511 511 511 511 511 511 511 511 511 511 511 511 511 511 511 511 511 511 511 511 511 429 192 273 274 274 209 210 201 201 274 209 209 201 201 136 201 201 137 210 201 202 201 273 346 128 201 201 201 209 201 137 210 201 492 346 502 511 511 511 511 511 511 511 511 511 511 511 511 511 511 511 511 511 511 511 511 511 511 511 511 511 511 511 511 511 511 511 511 511 511 511 511 511 511 511 511 511 511 511 511 511 511 511 511 511 511 511 511 511 511 511 511 511 511 511 511 438 128 209 274 274 274 201 210 201 209 273 209 201 201 201 201 137 201 209 201 202 210 274 411 346 201 201 201 209 209 201 201 274 491 419 511 511 511 511 511 511 511 511 511 511 511 511 511 511 511 511 511 511 511 511 511 511 511 511 511 511 511 511 511 511 511 511 511 511 511 511 511 511 511 511 511 511 511 511 511 511 511 511 511 511 511 511 511 511 511 511 511 511 511 511 511 502 201 274 210 274 274 201 274 209 201 209 201 201 201 209 201 201 201 201 201 202 210 209 201 338 274 201 209 209 209 210 201 346 492 500 511 511 511 511 511 511 511 511 511 511 511 511 511 511 511 511 511 511 511 511 511 511 511 511 511 511 511 511 511 511 511 511 511 511 511 511 511 511 511 511 511 511 511 511 511 511 511 511 511 511 511 511 511 511 511 511 511 511 511 511 511 502 201 209 274 274 273 273 201 209 201 209 209 201 201 201 201 201 201 201 201 202 202 201 137 137 201 209 201 209 210 201 201 346 491 346 511 511 511 511 511 511 511 511 511 511 511 511 511 511 511 511 511 511 511 511 511 511 511 511 511 511 511 511 511 511 511 511 511 511 511 511 511 511 511 511 511 511 511 511 511 511 511 511 511 511 511 511 511 511 511 511 511 511 511 511 511 511 210 201 274 274 274 273 273 201 201 201 201 201 201 201 201 201 201 201 201 202 202 201 201 201 201 201 201 201 201 201 209 282 491 420 511 511 511 511 511 511 511 511 511 511 511 511 511 511 511 511 511 511 511 511 511 511 511 511 511 511 511 511 511 511 511 511 511 511 511 511 511 511 511 511 511 511 511 511 511 511 511 511 511 511 511 511 511 511 511 511 511 511 511 511 511 511 355 128 274 274 274 273 273 273 273 201 201 201 201 201 201 201 201 201 201 201 202 201 201 201 201 201 209 209 201 201 209 346 427 511 511 511 511 511 511 511 511 511 511 511 511 511 511 511 511 511 511 511 511 511 511 511 511 511 511 511 511 511 511 511 511 511 511 511 511 511 511 511 511 511 511 511 511 511 511 511 511 511 511 511 511 511 511 511 511 511 511 511 511 511 511 511 511 511 274 273 274 273 273 273 273 273 209 201 201 201 201 201 202 201 201 201 202 202 137 201 201 201 201 209 201 209 274 346 492 511 511 511 511 511 511 511 511 511 511 511 511 511 511 511 511 511 511 511 511 511 511 511 511 511 511 511 511 511 511 511 511 511 511 511 511 511 511 511 511 511 511 511 511 511 511 511 511 511 511 511 511 511 511 511 511 511 511 511 511 511 511 511 511 438 210 273 273 273 273 273 273 273 273 201 201 201 201 201 201 201 201 201 201 201 201 201 201 201 209 209 201 274 274 346 492 511 511 511 511 511 511 511 511 511 511 511 511 511 511 511 511 511 511 511 511 511 511 511 511 511 511 511 511 511 511 511 511 511 511 511 511 511 511 511 511 511 511 511 511 511 511 511 511 511 511 511 511 511 511 511 511 511 511 511 511 511 511 511 428 210 210 274 273 273 273 273 273 273 273 201 201 201 201 273 273 265 201 201 201 201 201 201 201 201 201 201 201 282 274 354 428 511 511 511 511 511 511 511 511 511 511 511 511 511 511 511 511 511 511 511 511 511 511 511 511 511 511 511 511 511 511 511 511 511 511 511 511 511 511 511 511 511 511 511 511 511 511 511 511 511 511 511 511 511 511 511 511 511 511 511 511 511 438 210 138 146 210 273 273 273 209 273 273 273 273 201 201 201 201 192 201 273 265 201 201 128 201 201 201 201 201 201 273 274 282 410 429 511 511 511 511 511 511 511 511 511 511 511 511 511 511 511 511 511 511 511 511 511 511 511 511 511 511 511 511 511 511 511 511 511 511 511 511 511 511 511 511 511 511 511 511 511 511 511 511 511 511 511 511 511 511 511 511 511 511 511 502 355 210 146 146 211 146 209 273 273 273 273 273 273 273 201 201 201 137 128 129 201 201 201 129 128 137 201 201 201 201 201 282 274 346 346 502 511 511 511 511 511 511 511 511 511 511 511 511 511 511 511 511 511 511 511 511 511 511 511 511 511 511 511 511 511 511 511 511 511 511 511 511 511 511 511 511 511 511 511 511 511 511 511 511 511 511 511 511 511 511 511 511 510 510 428 146 146 146 146 146 211 137 137 273 209 273 209 273 273 265 201 201 201 128 64 128 201 201 201 64 64 64 137 137 137 201 201 274 273 346 274 510 501 511 511 511 511 511 511 511 511 511 511 511 511 511 511 511 511 511 511 511 511 511 511 511 511 511 511 511 511 511 511 511 511 511 511 511 511 511 511 511 511 511 511 511 511 511 511 511 511 511 511 511 511 511 501 500 492 355 137 146 146 146 146 210 210 64 73 210 209 273 209 273 273 201 201 137 128 64 64 64 64 64 128 64 0 64 64 64 64 201 209 274 282 346 428 509 500 354 437 511 511 511 511 511 511 511 511 511 511 511 511 511 511 511 511 511 511 511 511 511 511 511 511 511 511 511 511 511 511 511 511 511 511 511 511 511 511 511 511 511 511 511 511 511 511 511 511 510 510 492 427 283 210 146 146 210 210 146 210 210 146 0 74 209 209 273 209 209 273 201 128 64 64 64 64 64 64 64 64 0 0 0 64 64 64 274 274 209 346 346 509 509 509 509 355 428 510 511 511 511 511 511 511 511 511 511 511 511 511 511 511 511 511 511 511 511 511 511 511 511 511 511 511 511 511 511 511 511 511 511 511 511 511 511 511 511 511 511 511 511 511 511 501 500 355 210 146 146 146 146 210 210 210 146 210 210 137 0 74 201 209 209 209 201 273 201 64 64 64 64 0 64 0 64 64 64 0 64 64 64 209 274 274 209 419 346 501 509 509 501 509 501 492 501 511 511 511 511 511 511 511 511 511 511 511 511 511 511 511 511 511 511 511 511 511 511 511 511 511 511 511 511 511 511 511 511 511 511 511 511 511 511 511 511 511 511 437 427 210 137 138 146 146 146 210 210 210 210 210 210 210 210 73 1 74 201 209 209 273 201 273 136 64 64 128 64 64 64 64 128 128 64 64 64 128 128 64 274 274 201 419 346 428 509 509 501 501 501 428 500 500 501 511 511 511 511 511 511 511 511 511 511 511 511 511 511 511 511 511 511 511 511 511 511 511 511 511 511 511 511 511 511 511 511 511 511 511 511 511 511 502 291 210 146 146 146 146 146 146 146 146 210 210 210 210 210 210 137 64 74 1 201 201 209 209 201 209 64 64 136 137 136 136 128 128 137 136 128 64 64 201 201 136 274 274 209 419 274 419 509 509 492 500 500 500 501 509 509 509 510 511 511 511 511 511 511 511 511 511 511 511 511 511 511 511 511 511 511 511 511 511 511 511 511 511 511 511 511 511 511 511 511 511 511 511 283 210 146 146 146 210 146 146 146 146 146 210 210 210 210 210 210 210 137 0 83 1 137 201 201 209 201 209 64 136 201 64 0 64 64 64 64 128 128 0 0 201 201 64 274 274 273 419 137 355 509 509 428 355 355 419 428 509 510 509 509 509 510 511 511 511 511 511 511 511 511 511 511 511 511 511 511 511 511 511 511 511 511 511 511 511 511 511 511 511 511 511 511 511 356 137 146 210 146 210 210 210 210 210 146 146 210 210 210 210 210 210 210 210 137 0 83 0 65 201 201 209 201 209 136 128 201 128 0 64 128 128 64 128 64 0 64 201 137 136 209 201 346 283 65 346 509 509 500 428 355 274 355 346 428 509 509 509 509 509 511 511 511 511 511 511 511 511 511 511 511 511 511 511 511 511 511 511 511 511 511 511 511 511 511 511 511 511 438 210 146 210 210 210 210 210 210 210 210 210 146 210 210 210 210 210 210 210 210 146 73 1 83 1 0 201 201 209 201 201 128 128 201 201 128 64 64 64 64 64 64 64 137 201 137 136 355 209 419 74 137 282 509 509 509 500 355 274 282 282 282 355 428 501 509 509 509 501 511 511 511 511 511 511 511 511 511 511 511 511 511 511 511 511 511 511 511 511 511 511 511 511 511 429 145 146 210 210 210 210 210 210 210 210 210 146 210 210 210 210 210 210 210 210 210 137 64 1 75 1 0 137 201 209 209 137 64 128 201 201 137 129 128 128 128 128 129 137 201 201 136 128 347 273 347 10 137 282 501 509 509 500 355 274 274 283 274 420 282 210 282 428 509 510 509 437 511 511 511 511 511 511 511 511 511 511 511 511 511 511 511 511 511 511 511 511 511 511 292 137 210 210 210 210 210 210 210 210 210 210 210 146 210 210 210 210 210 210 210 210 210 137 0 1 75 1 0 64 137 201 209 137 64 128 136 201 201 201 201 201 201 201 201 201 201 137 128 201 346 347 138 74 137 274 501 509 509 500 283 210 282 274 283 347 428 283 428 428 347 363 509 509 437 511 511 511 511 511 511 511 511 511 511 511 511 511 511 511 511 511 511 511 511 292 145 210 210 210 210 210 210 210 210 210 210 210 210 210 210 210 210 210 210 210 210 210 210 137 0 1 74 1 0 64 137 137 209 137 64 128 136 137 201 201 201 201 201 201 201 201 137 128 136 209 355 274 74 74 137 210 500 501 501 501 347 210 282 210 282 282 419 355 283 355 500 501 428 436 509 509 510 511 511 511 511 511 511 511 511 511 511 511 511 511 511 511 511 511 438 137 210 210 210 210 210 210 210 210 210 210 210 210 210 210 210 210 210 210 210 210 210 210 210 137 0 10 74 1 0 0 64 137 201 137 64 64 128 128 136 137 136 128 64 64 136 137 136 64 64 209 419 137 74 74 137 210 428 501 501 500 355 210 274 274 210 283 282 282 210 210 282 355 428 501 501 501 509 511 511 511 511 511 511 511 511 511 511 511 511 511 511 511 511 511 210 210 210 210 210 210 210 210 210 210 210 210 210 210 210 210 210 210 210 210 210 210 210 210 210 73 0 74 74 1 0 0 64 64 137 137 64 64 64 64 64 64 64 64 0 0 64 64 64 64 64 209 346 137 74 74 137 210 355 500 500 500 355 210 210 210 210 282 210 210 210 210 210 210 218 428 500 501 501 508 510 511 511 511 511 511 511 511 511 511 511 511 511 511 511 283 210 210 210 210 210 210 210 210 210 210 210 210 210 210 210 210 210 210 210 210 210 210 210 210 146 73 0 74 74 1 0 0 64 64 137 137 64 64 64 64 64 64 64 64 0 0 64 64 64 64 64 209 282 146 83 1 137 210 355 428 500 428 283 210 210 210 210 210 282 210 210 210 210 210 210 218 428 428 500 509 501 509 511 511 511 511 511 511 511 511 511 511 511 511 365 145 210 210 210 210 210 210 210 210 210 210 210 210 210 210 210 210 210 210 210 210 210 210 210 210 145 73 0 74 74 1 0 0 64 64 128 64 64 64 64 64 64 64 64 64 64 64 64 64 64 64 137 137 210 73 83 1 209 210 355 428 500 428 283 210 210 210 210 210 282 210 210 210 210 210 210 210 218 356 428 501 501 501 509 511 511 511 511 511 511 511 511 511 511 437 73 210 210 210 210 210 210 210 210 210 210 210 210 210 210 210 210 210 210 210 210 210 210 210 210 210 146 73 1 74 74 1 0 0 1 65 64 64 64 64 64 64 64 64 128 136 128 128 64 64 64 0 137 210 145 74 83 0 210 210 283 355 428 428 218 210 210 210 210 210 218 210 210 210 210 210 210 210 210 210 355 428 501 428 509 509 510 511 511 511 511 511 511 511 511 210 210 210 210 210 210 210 210 210 210 210 210 210 210 210 210 210 210 210 210 210 210 210 210 210 210 210 145 73 1 74 0 1 1 0 1 73 137 64 64 64 64 64 64 64 128 64 136 64 64 64 64 64 136 210 73 74 83 0 210 210 218 355 355 428 210 210 210 210 210 210 210 210 210 210 210 210 210 210 210 210 210 355 428 500 428 501 509 510 511 511 511 511 511 511 510 210 210 210 210 210 210 210 210 210 210 210 210 210 210 210 210 210 210 210 210 210 210 210 210 210 210 210 137 137 73 1 0 1 73 0 1 1 74 210 73 64 64 64 64 64 64 64 136 64 64 64 64 64 136 137 1 74 75 0 210 210 218 283 283 355 210 210 210 210 210 210 210 210 210 210 210 210 210 210 210 210 210 283 355 501 355 436 282 510 510 511 511 511 511 511 356 209 210 210 210 210 210 210 210 210 210 210 210 210 210 210 210 210 210 210 210 210 210 210 210 210 210 210 145 137 65 0 1 0 74 0 1 1 1 74 210 73 64 64 64 64 64 64 64 64 64 64 64 64 137 0 74 83 74 65 210 210 210 282 283 210 210 210 210 210 210 210 210 210 210 210 210 210 210 210 210 210 210 210 283 428 428 428 283 283 510 510 511 511 511 511 283 210 210 210 210 210 210 210 210 210 210 210 210 210 210 210 210 210 210 210 210 210 210 210 210 210 210 145 145 145 73 1 1 73 73 1 0 1 1 1 74 210 137 72 64 64 64 64 64 64 64 64 137 73 1 1 74 147 10 73 210 210 210 283 210 210 210 210 210 210 210 210 210 210 210 210 210 210 210 210 210 210 210 210 218 218 501 283 436 146 428 510 510 511 511 511 210 210 210 210 210 210 210 210 210 210 210 210 210 210 210 210 210 210 210 210 210 210 210 210 210 210 145 146 145 146 73 1 1 1 73 73 1 1 1 9 1 74 210 210 210 210 210 210 137 137 137 73 73 1 73 1 0 74 1 137 210 210 210 282 210 210 210 210 210 210 210 210 210 210 210 210 210 210 210 210 210 210 210 210 210 210 428 283 364 210 210 436 509 511 511 437 209 210 210 210 210 210 210 210 210 210 210 210 210 210 210 210 210 210 210 210 210 210 210 210 210 146 146 210 145 210 73 1 1 1 2 74 1 1 1 74 74 10 73 146 210 283 283 283 219 210 73 1 1 1 74 74 1 0 1 209 210 210 218 210 210 210 210 210 210 210 210 210 210 210 210 210 210 210 210 210 210 210 210 210 210 210 283 356 210 364 210 137 510 437 511 356 209 210 210 210 274 274 210 210 210 210 210 210 210 210 210 210 210 210 210 210 210 210 210 210 146 145 210 210 145 210 73 10 10 1 1 74 1 1 10 74 74 74 74 73 146 210 210 146 74 1 1 9 1 1 74 74 1 0 73 209 210 210 210 210 210 210 210 210 210 210 210 210 210 210 146 210 210 210 210 210 210 210 210 210 210 210 210 355 210 355 218 146 428 509 511 283 209 210 210 274 274 274 210 210 210 210 210 210 210 210 146 210 210 210 210 210 210 210 210 146 146 145 210 210 145 210 73 1 74 74 10 74 9 1 74 74 74 74 74 74 146 146 74 74 74 74 9 73 1 1 74 74 1 0 138 209 145 283 218 146 210 210 210 210 210 210 210 210 210 210 210 210 210 210 210 210 210 210 210 210 210 210 210 283 219 218 283 210 283 509 511 283 209 210 210 274 274 282 210 210 210 210 210 218 210 210 210 210 210 210 210 210 210 210 210 146 146 145 146 210 145 210 74 10 74 74 74 74 73 73 74 74 1 74 74 74 1 74 74 74 74 74 9 74 1 1 74 10 0 1 146 209 210 210 356 355 210 210 210 210 210 210 210 210 210 210 210 146 210 210 210 210 210 210 210 210 210 210 210 218 218 210 210 210 210 427 511 283 209 210 210 274 274 282 210 210 210 210 210 210 210 210 210 210 210 210 210 210 210 209 209 73 210 146 146 210 145 210 74 10 74 74 74 74 74 74 74 74 2 1 10 9 74 74 74 74 74 74 1 74 1 1 74 1 1 65 210 210 146 146 283 501 355 146 210 210 210 210 210 210 210 210 210 210 210 210 210 210 210 210 210 210 210 210 210 210 218 210 218 210 210 355 510 283 209 210 210 274 274 282 210 210 210 210 210 218 210 210 210 210 210 210 146 146 210 136 136 137 138 146 146 210 146 146 74 10 74 74 74 74 74 74 74 74 74 74 9 74 73 74 74 74 74 74 74 1 1 73 74 1 1 73 210 210 146 146 210 355 428 291 146 210 210 210 210 210 210 210 210 210 210 210 210 210 210 210 210 210 210 210 210 210 218 218 210 210 210 210 502 283 137 210 210 274 274 274 210 210 210 210 210 210 210 210 210 210 210 210 210 210 137 137 137 145 137 146 145 146 146 210 74 10 74 74 74 74 74 74 74 74 74 74 74 74 146 1 74 74 74 74 74 74 10 74 1 1 1 138 210 210 210 210 145 283 501 501 283 210 210 210 210 210 210 210 210 210 210 210 210 210 210 210 210 210 210 210 210 210 218 218 210 210 210 209 438 283 137 210 210 274 274 274 210 210 210 210 210 210 210 210 210 210 210 210 209 209 145 145 145 137 137 137 145 146 146 146 74 10 74 74 74 74 74 74 74 74 74 74 74 74 74 74 74 74 74 74 74 74 74 73 2 10 10 146 210 210 210 146 145 137 145 428 428 210 210 210 210 210 210 210 210 210 210 210 210 210 210 210 210 210 210 210 210 210 210 210 210 210 210 209 437 283 137 210 210 274 274 210 210 210 210 210 210 210 210 210 209 145 209 209 210 210 210 209 145 137 137 137 146 146 146 146 74 10 74 74 74 74 74 74 74 74 10 74 74 74 74 147 146 74 74 74 74 74 74 74 74 74 74 210 210 210 137 73 145 64 72 136 282 218 210 210 210 210 210 210 210 210 210 210 210 210 210 210 210 210 210 218 210 210 210 210 210 210 210 201 429 283 137 210 210 274 274 274 210 210 210 210 210 210 210 210 210 210 210 210 210 210 210 210 145 137 145 137 146 146 146 210 74 10 74 74 74 74 74 74 74 74 10 74 74 74 74 74 74 74 74 74 74 74 74 74 74 74 74 210 210 146 73 210 72 137 137 137 136 137 210 210 210 210 210 210 283 356 210 210 210 210 210 210 210 210 210 210 210 210 210 210 210 210 210 137 365 283 137 209 210 210 274 274 210 210 210 210 210 210 210 210 210 210 210 210 210 210 210 209 145 137 210 137 145 146 146 146 74 10 74 74 74 74 74 74 74 10 10 74 74 74 74 74 74 74 74 10 74 74 74 74 74 10 138 210 210 137 137 145 137 137 145 209 137 137 137 145 210 210 210 210 283 283 218 210 210 210 210 210 210 210 210 210 210 210 210 210 210 210 210 137 365 291 137 137 274 210 274 274 210 210 210 210 210 210 210 210 210 210 210 210 210 210 210 209 145 137 210 137 137 210 146 146 74 10 10 10 10 10 74 74 74 10 2 83 74 74 74 74 74 74 75 10 10 10 74 74 74 10 146 210 210 73 146 137 137 145 209 210 210 209 137 137 209 210 210 210 210 210 210 210 210 210 210 210 210 210 210 218 210 210 210 210 210 210 209 137 364 292 137 137 282 210 274 210 210 210 210 210 210 210 210 210 210 210 210 210 210 210 210 210 145 145 210 137 137 210 146 146 74 10 10 10 10 74 74 74 74 10 2 83 74 74 74 74 74 74 82 83 74 2 2 10 74 10 210 210 137 137 210 145 145 145 209 210 210 210 210 209 210 210 210 210 210 210 218 210 210 210 210 210 210 210 210 218 210 210 210 210 210 210 137 137 356 356 137 72 282 210 274 274 210 210 210 210 210 210 210 210 210 210 210 210 210 210 210 209 145 145 210 145 137 210 146 146 74 10 74 74 74 74 74 74 74 10 2 83 74 74 74 74 74 74 74 83 74 74 2 2 2 2 210 210 73 210 145 145 145 209 210 210 210 210 210 209 210 210 210 210 210 210 210 210 210 210 210 210 210 210 210 210 210 210 210 210 210 210 137 209 356 356 137 72 282 210 274 274 210 210 210 210 210 210 210 210 210 210 146 210 210 210 210 210 145 146 210 210 73 210 146 146 74 74 74 74 74 74 74 75 74 10 2 83 74 74 74 74 74 74 74 74 82 74 74 10 1 1 218 137 137 209 145 145 145 209 210 210 210 210 210 210 210 210 210 210 210 210 210 210 210 210 210 210 210 210 210 210 210 210 210 210 210 209 137 209 356 365 137 137 210 274 274 210 210 210 210 210 210 210 210 210 210 210 210 210 210 210 210 210 145 210 210 210 73 210 146 146 74 74 74 74 74 74 74 75 74 10 10 83 74 74 74 74 74 74 74 74 74 74 74 74 74 74 210 137 210 145 145 145 210 210 210 210 210 210 210 210 210 210 210 210 210 210 210 210 210 210 210 210 210 210 210 210 210 210 210 210 210 145 137 209 364 429 201 137 209 274 274 210 210 210 210 210 210 210 210 210 210 210 210 210 210 210 210 210 209 210 210 210 73 210 146 146 74 74 74 74 74 74 74 74 74 74 10 83 74 74 74 74 74 74 75 74 74 74 74 74 74 146 210 137 210 145 145 145 210 210 210 210 210 210 210 210 210 210 210 210 210 210 210 210 210 210 210 210 210 210 210 210 210 210 210 210 210 137 145 209 364 429 201 137 137 274 274 274 210 210 210 210 210 210 210 210 210 210 210 210 210 210 210 210 145 210 210 210 73 210 146 146 74 74 74 74 74 74 74 82 74 74 74 83 74 74 74 74 74 74 74 74 74 74 74 74 74 146 210 137 210 145 210 210 210 210 210 210 210 210 210 210 210 210 210 210 210 210 210 210 210 210 210 210 210 210 210 210 210 210 210 210 209 137 145 210 364 438 209 137 72 274 274 274 210 210 210 210 210 210 210 210 210 210 210 210 210 210 210 210 210 210 210 145 73 210 146 146 10 74 74 74 74 74 74 74 74 74 74 83 74 74 74 74 74 74 74 74 74 74 74 74 74 210 145 145 210 209 210 210 210 210 210 210 210 210 210 210 210 210 210 210 210 210 210 210 210 210 210 210 210 210 210 210 210 210 210 210 209 137 209 210 356 502 201 137 72 210 274 274 210 210 210 210 210 210 210 210 210 210 210 210 210 210 210 210 210 210 210 145 73 210 146 146 10 10 74 74 74 74 74 74 74 74 74 83 74 75 83 74 74 74 74 74 74 74 74 74 10 210 73 210 145 210 210 210 210 210 210 210 210 210 210 210 210 210 210 210 210 210 210 210 210 210 210 210 210 210 210 210 210 210 210 210 137 137 210 210 356 511 201 145 72 209 274 282 210 210 210 210 210 210 210 210 210 210 210 210 210 210 210 210 210 210 210 137 137 210 146 146 2 10 10 10 74 74 74 74 74 74 74 83 75 82 74 83 74 74 74 74 74 74 74 10 10 210 72 210 145 210 210 210 210 210 210 210 210 210 210 210 210 210 210 210 210 210 210 210 210 210 210 210 210 210 210 210 210 210 210 210 137 137 210 210 356 511 209 209 72 145 210 282 210 210 210 210 210 210 210 210 210 210 210 210 210 210 210 210 210 210 210 137 137 210 146 146 10 10 10 10 10 10 74 75 74 74 75 74 74 74 83 83 74 74 74 74 74 74 74 74 74 146 137 210 145 210 210 210 210 210 210 210 210 210 210 210 210 210 210 210 210 210 210 210 210 210 210 210 210 210 210 210 210 210 210 145 137 137 210 210 355 511 210 209 72 137 210 282 210 210 210 210 210 210 210 210 210 210 210 210 210 210 210 210 210 210 210 137 146 210 146 146 10 74 74 10 10 10 10 10 10 74 74 83 83 82 83 75 75 75 74 74 74 74 74 74 74 146 145 210 145 210 210 210 210 210 210 210 210 210 210 210 210 210 210 210 210 210 210 210 210 210 210 210 210 210 210 210 210 210 210 137 137 137 210 209 283 511 283 209 73 137 210 210 210 210 210 210 210 210 210 210 210 210 210 210 210 210 210 210 210 210 210 137 146 210 146 146 10 74 74 74 74 74 74 10 10 74 74 74 74 83 83 75 75 74 75 74 74 74 74 74 74 73 210 210 210 210 210 210 210 210 210 210 210 210 210 210 210 210 210 210 210 210 210 210 210 210 210 210 210 210 210 210 210 210 210 137 137 210 210 209 355 